<svg width="39" height="64" viewBox="0 0 39 64" fill="none" xmlns="http://www.w3.org/2000/svg">
<path d="M22.0565 33.7064C20.6666 32.6074 19.3815 31.3906 18.2013 30.0561C18.0794 29.9183 17.9269 29.847 17.7438 29.8421C17.2668 29.8303 16.8002 29.8134 16.3442 29.7912C15.6562 29.2372 15.1357 28.84 14.7826 28.5997C13.9477 28.0304 12.803 27.2943 11.3484 26.3912C10.8345 26.0723 10.33 25.6672 9.85892 25.2922C8.59161 24.2832 7.46356 23.1138 6.47478 21.7842C5.62527 20.6408 4.96654 19.5182 4.49861 18.4164C3.98681 17.21 3.70967 15.9022 3.6672 14.4929C3.58051 11.6382 4.32209 8.59042 5.94627 6.16379C6.39053 5.49896 6.83269 4.9394 7.27277 4.4851C7.50326 4.24756 7.82948 3.93765 8.25146 3.55537C8.63026 3.21257 8.9913 2.9179 9.33459 2.67136C10.8477 1.5827 12.5015 1.08165 14.2959 0.544942C16.764 -0.192603 19.5079 -0.112616 22.0638 0.375618C24.3723 1.0544 27.7782 2.91755 27.7782 2.91755C27.7782 2.91755 28.918 3.74859 29.3721 4.14749C29.6401 4.38295 30.0221 4.545 30.5179 5.04916C32.1295 6.68734 33.2774 8.32345 34.1485 10.4571C34.6972 11.8013 35.0391 13.1677 35.1742 14.5562C35.3608 16.4752 35.4698 20.3548 35.4698 20.3548C35.4586 20.4005 35.4301 20.4164 35.3841 20.4026C33.5166 19.8347 31.6668 19.2654 29.8348 18.6948C29.5186 18.5971 29.1851 18.5019 28.8341 18.4091C28.3881 18.2907 27.7615 18.0185 27.328 17.8887L25.4857 17.1545L25.2768 15.856L25.0679 14.8172L24.8067 13.6745L24.2845 12.5838L23.71 11.8047L23.1356 11.2333L22.5611 10.7659L21.9866 10.3504L21.5166 10.0907L20.9944 9.88291L20.3677 9.67515L19.4799 9.41545C19.4799 9.41545 18.2124 9.16556 16.5405 9.37886C15.6694 9.49001 14.8484 9.84321 14.0776 10.3387C13.7392 10.5562 13.4614 10.7972 13.2441 11.0617C12.5659 11.8893 12.1672 12.784 12.0482 13.746C11.8529 15.326 12.42 16.532 13.5595 17.5469C13.8088 17.7685 14.0825 17.9666 14.3805 18.1411C15.7394 18.9379 17.3103 19.4323 18.8802 19.2796C19.9386 19.1764 21.0134 19.2599 22.1045 19.53C22.899 19.7267 23.6573 20.0719 24.3794 20.5657C24.4852 20.6377 24.7704 20.8884 25.2348 21.3177C26.1623 22.1737 27.2302 22.6457 28.4383 22.7336C28.5525 22.7419 28.8383 22.7669 29.2958 22.8084C29.4727 22.8243 29.6534 22.8344 29.8379 22.8385C31.296 22.8676 32.7478 23.6062 33.761 24.6253C33.7826 24.6467 33.7819 24.6675 33.7589 24.6876C33.0159 25.34 32.1702 25.7901 31.2218 26.038C30.686 26.1772 30.0113 26.1596 29.4598 25.9674C29.2008 25.8781 28.9323 25.8427 28.6649 25.7586C27.3896 25.3514 26.0422 25.2132 24.6886 25.1374C24.6168 25.1339 24.59 25.1665 24.6081 25.235C25.051 26.9034 25.7658 28.4352 26.7525 29.8307C26.788 29.8812 26.8336 29.9204 26.8893 29.9481C26.9248 29.9654 26.9245 29.9823 26.8883 29.999C25.9162 30.4318 24.9295 30.4924 23.9282 30.1808C23.6622 30.0983 23.3116 29.9062 22.8764 29.6042C20.6356 28.0502 18.4258 26.5356 16.247 25.0605C16.2401 25.0557 16.2355 25.0574 16.2334 25.0657C16.232 25.0692 16.232 25.0726 16.2334 25.0761C16.2341 25.0796 16.2359 25.0823 16.2387 25.0844C17.6111 26.2181 18.9616 27.3123 20.2902 28.367C21.3187 29.1828 22.2741 29.9017 23.1563 30.5236C23.3965 30.6925 23.7057 30.8335 24.0838 30.9463C24.9518 31.205 25.8939 31.0232 26.7347 30.6783C26.9158 30.6042 27.0878 30.5024 27.2507 30.3729C27.6392 30.0665 28.009 29.9481 28.5009 29.8463C28.7558 29.7943 28.9912 29.7891 29.207 29.8307C29.5799 29.9024 29.958 29.9678 30.286 30.2057C30.6119 30.4425 30.8852 30.6925 31.1059 30.9557C31.1104 30.9613 31.1138 30.9677 31.1156 30.9747C31.1174 30.9816 31.1178 30.9888 31.1166 30.9958C31.1154 31.0028 31.1127 31.0094 31.1087 31.0152C31.1047 31.021 31.0995 31.0259 31.0934 31.0295C29.8985 31.7615 28.6611 32.3432 27.3813 32.7746C27.3625 32.7809 27.3482 32.793 27.3384 32.811C27.335 32.8169 27.3328 32.8234 27.3321 32.8303C27.3314 32.8371 27.3321 32.844 27.3343 32.8505C27.3364 32.8571 27.34 32.8632 27.3446 32.8683C27.3493 32.8735 27.355 32.8777 27.3614 32.8806C28.385 33.3273 29.41 33.4526 30.4364 33.2566C30.6258 33.2199 30.8145 33.1472 31.0025 33.0385C32.3381 32.2629 33.6875 32.3719 35.0509 33.3657C35.2257 33.4938 35.3768 33.6555 35.5042 33.8508C35.5136 33.8655 35.5264 33.8777 35.5415 33.8862C35.5566 33.8947 35.5736 33.8993 35.5909 33.8996C35.6306 33.9003 35.6508 33.9059 35.6515 33.9163C35.6515 33.9163 35.6515 33.9166 35.6515 33.9173C35.6501 33.9325 35.6421 33.9384 35.6275 33.935C35.498 33.9069 35.3747 33.8695 35.2442 33.9183C34.5339 34.1864 33.8059 34.4471 33.0601 34.7006C32.6173 34.8512 32.1556 34.9623 31.7023 35.0693C31.6922 35.0718 31.683 35.0769 31.6756 35.0842C31.6682 35.0915 31.6629 35.1007 31.6603 35.1107C31.6578 35.1207 31.658 35.1312 31.661 35.1412C31.6639 35.1511 31.6696 35.16 31.6772 35.167C32.3924 35.8076 33.213 36.238 34.1391 36.4582C34.2519 36.4852 34.3926 36.4883 34.5611 36.4676C35.1261 36.4 35.6348 36.4281 36.1967 36.6088C36.5553 36.7238 36.883 36.9021 37.1796 37.1438C37.7318 37.594 38.136 38.175 38.3923 38.8869C38.4131 38.9451 38.3926 38.971 38.3306 38.9648C37.9379 38.9267 37.542 38.9011 37.143 38.8879C36.1288 38.8557 35.1314 38.7072 34.1203 38.5379C34.1125 38.5368 34.1046 38.5379 34.0974 38.5411C34.0902 38.5443 34.0841 38.5495 34.0797 38.556C34.0753 38.5625 34.0729 38.5701 34.0727 38.5779C34.0725 38.5857 34.0745 38.5935 34.0785 38.6002C34.2258 38.837 34.3835 39.0905 34.6154 39.2546C35.241 39.6941 35.6661 40.309 35.7883 41.0632C35.8447 41.4101 35.8211 41.7595 35.7173 42.1113C35.592 42.5372 35.4151 42.9025 35.1867 43.2073C35.18 43.216 35.1714 43.2232 35.1616 43.2282C35.1517 43.2331 35.1408 43.2358 35.1298 43.236C35.1187 43.2362 35.1078 43.2339 35.0977 43.2293C35.0877 43.2247 35.0788 43.2179 35.0718 43.2093C33.6485 41.4842 32.1856 39.7218 30.6829 37.9219C30.5513 37.765 30.4176 37.6404 30.216 37.5676C29.7634 37.4042 29.317 37.248 28.877 37.0991C28.8435 37.0874 28.8164 37.0673 28.7955 37.0389L27.9045 35.8225C27.8937 35.8079 27.8792 35.7964 27.8623 35.7891C27.8455 35.7818 27.8269 35.779 27.8085 35.7809C27.3196 35.8356 26.8078 35.8889 26.2731 35.9409C26.0732 35.9603 25.8915 35.9274 25.7278 35.8422C24.7216 35.3159 23.712 34.6296 22.6988 33.7833C22.6222 33.7189 22.5296 33.6839 22.421 33.6784C22.3019 33.6722 22.1804 33.6815 22.0565 33.7064Z" fill="#549B3E"/>
<path d="M16.344 30.3106C16.8001 30.3327 17.2666 30.3497 17.7436 30.3615C17.9268 30.3663 18.0793 30.4376 18.2011 30.5754C19.3814 31.91 20.6665 33.1267 22.0563 34.2258C22.9225 34.9252 23.6892 35.4935 24.3563 35.9304C24.9589 36.3252 25.453 36.6659 26.0473 37.0129C28.3222 38.3404 30.2576 40.0569 31.8536 42.1622C32.566 43.1019 33.1815 44.1137 33.7003 45.1975C34.0227 45.8714 34.2573 46.5379 34.4043 47.1972C35.1103 50.3811 34.5651 53.8621 33.0924 56.7635C32.7923 57.3542 32.4246 57.9314 31.9894 58.4952C31.3704 59.2978 30.7855 59.9387 30.2347 60.418C30.0397 60.5883 29.71 60.8529 29.2455 61.2116C26.4985 63.336 23.4131 63.9405 19.9433 63.9977C18.7547 64.0171 17.6392 63.9132 16.5968 63.686C15.3392 63.4118 14.0816 63.016 12.9181 62.4478C10.1056 61.0759 7.80462 59.1146 6.01507 56.564C4.76586 54.7842 3.88675 52.8019 3.37773 50.6169C3.21967 49.9417 3.11661 49.2585 3.06857 48.5674C2.93974 46.7301 2.89483 45.7498 3.35162 43.9645C3.35331 43.9576 3.35637 43.9512 3.36064 43.9456C3.36491 43.9399 3.37028 43.9352 3.37644 43.9317C3.3826 43.9282 3.38941 43.926 3.39645 43.9252C3.4035 43.9244 3.41063 43.9251 3.41742 43.9271L13.8395 46.9679V47.3315L13.8917 47.9028L13.9439 48.4741L13.9961 49.0974C14.884 51.9022 16.3462 52.9929 16.6074 53.0968L17.0252 53.4084L17.3907 53.6681L17.7041 53.8759C17.7041 53.8759 18.0383 54.0151 18.1741 54.0836C19.752 54.8731 21.3193 54.9234 22.9285 54.3743C23.6707 54.1208 24.288 53.7648 24.7803 53.3064C25.5024 52.6353 25.9853 51.8313 26.229 50.8943C26.5445 49.6838 26.3948 48.5691 25.7799 47.5504C25.4714 47.04 24.991 46.5563 24.3385 46.0992C23.2655 45.3471 22.0306 44.8904 20.6337 44.729C20.3364 44.6944 19.9785 44.7 19.56 44.7457C18.8529 44.8236 18.1343 44.8194 17.424 44.6937C17.2179 44.6577 17.0034 44.6248 16.7806 44.595C15.7351 44.4548 14.677 43.9697 13.8874 43.3526C13.6764 43.1878 13.3867 42.9357 13.0184 42.5964C12.8631 42.453 12.7141 42.3336 12.5713 42.238C12.3687 42.1019 12.1723 41.9285 11.9519 41.8298C11.2124 41.5015 10.4106 41.3093 9.54648 41.2532C8.93963 41.2127 8.30876 41.2293 7.71967 41.1016C6.54149 40.8467 5.51893 40.2892 4.65201 39.4291C4.6469 39.4239 4.64286 39.4178 4.64014 39.4111C4.63741 39.4045 4.63606 39.3973 4.63616 39.3901C4.63626 39.383 4.6378 39.3759 4.6407 39.3694C4.64361 39.3629 4.64781 39.3571 4.65305 39.3522C5.13143 38.9125 5.66586 38.5638 6.25634 38.3062C7.22075 37.8858 8.2172 37.8283 9.24567 38.1337C9.39329 38.1774 9.54161 38.2193 9.69062 38.2594C11.0352 38.6195 12.3889 38.8214 13.7516 38.865C13.7581 38.8653 13.7645 38.864 13.7704 38.8613C13.7763 38.8585 13.7815 38.8544 13.7855 38.8493C13.7896 38.8441 13.7924 38.8381 13.7938 38.8316C13.7951 38.8252 13.795 38.8185 13.7934 38.8121C13.4389 37.4748 12.9035 36.2106 12.1869 35.0194C11.9937 34.6984 11.7535 34.418 11.5759 34.0866C11.5713 34.078 11.5686 34.0685 11.5679 34.0588C11.5671 34.0492 11.5684 34.0394 11.5717 34.0303C11.5749 34.0212 11.5801 34.0129 11.5867 34.006C11.5934 33.999 11.6015 33.9936 11.6104 33.99C12.0752 33.8009 12.5024 33.724 12.9808 33.6461C13.1374 33.6205 13.2889 33.6146 13.4351 33.6285C14.0667 33.6908 14.5437 33.813 14.8661 33.9952C15.0958 34.1254 15.6174 34.4709 16.4307 35.0319C18.1569 36.223 19.9753 37.4696 21.8861 38.7715C21.8882 38.7729 21.8913 38.7761 21.8955 38.7809C21.9031 38.7892 21.9115 38.7902 21.9205 38.784C21.9217 38.7831 21.9227 38.782 21.9234 38.7807C21.9241 38.7794 21.9245 38.7779 21.9246 38.7765C21.9247 38.775 21.9245 38.7735 21.924 38.7721C21.9234 38.7707 21.9226 38.7695 21.9216 38.7684C19.8187 37.0046 17.69 35.3151 15.5356 33.7001C14.9151 33.2355 14.2153 32.9855 13.4362 32.9501C13.3359 32.946 13.2325 32.974 13.127 32.9803C12.3652 33.0239 11.6546 33.2739 10.9952 33.7303C10.6763 33.9512 10.271 34.0987 9.7794 34.1728C9.44168 34.2234 9.1165 34.2012 8.80385 34.1063C8.14791 33.9069 7.65074 33.5613 7.31232 33.0696C7.30556 33.0599 7.30087 33.0489 7.29852 33.0373C7.29617 33.0257 7.29622 33.0138 7.29867 33.0023C7.30112 32.9908 7.30591 32.98 7.31275 32.9705C7.31959 32.961 7.32833 32.953 7.33843 32.947C8.50687 32.2448 9.72718 31.6748 10.9994 31.2372C11.0843 31.2081 11.0854 31.1755 11.0025 31.1395C10.1377 30.7614 9.24219 30.6298 8.31607 30.7448C8.04346 30.7791 7.75205 30.7811 7.5066 30.9307C6.25808 31.6925 5.00435 31.6953 3.74539 30.939C3.46895 30.7728 3.21166 30.5716 2.97352 30.3355C2.96309 30.3253 2.95537 30.3126 2.95104 30.2987C2.94671 30.2848 2.9459 30.2701 2.94869 30.2558C2.95148 30.2415 2.95779 30.2281 2.96704 30.2168C2.97629 30.2055 2.9882 30.1967 3.00172 30.1911C4.17712 29.7063 5.39151 29.3029 6.64489 28.9809C6.68667 28.9698 6.71104 28.9622 6.71801 28.958C6.76257 28.929 6.76466 28.8968 6.72427 28.8614C6.02586 28.2562 5.24667 27.842 4.38671 27.619C4.21681 27.5747 4.04899 27.5636 3.88327 27.5858C3.34152 27.6557 2.78864 27.6007 2.22462 27.4206C1.13835 27.0726 0.361252 26.198 0.00194791 25.128C-0.000110054 25.1214 -0.000545308 25.1143 0.000680071 25.1075C0.00190545 25.1007 0.00475417 25.0943 0.0089778 25.0888C0.0132014 25.0834 0.0186716 25.0791 0.0249108 25.0763C0.0311501 25.0736 0.0379687 25.0724 0.0447719 25.0729C0.475797 25.0965 0.894985 25.119 1.30234 25.1405C2.11007 25.1827 3.09886 25.3022 4.26868 25.4989C4.31603 25.5065 4.32961 25.4888 4.30942 25.4459C4.16319 25.1349 3.96125 24.8891 3.70361 24.7083C3.22036 24.369 2.88474 23.9116 2.69673 23.3361C2.55746 22.9116 2.54284 22.4721 2.65286 22.0178C2.76218 21.5684 2.95193 21.1588 3.22211 20.7889C3.22614 20.7831 3.23151 20.7783 3.23778 20.775C3.24406 20.7716 3.25106 20.7698 3.25825 20.7695C3.26544 20.7693 3.27261 20.7708 3.27921 20.7738C3.2858 20.7768 3.29164 20.7813 3.29626 20.7869C4.77944 22.5854 6.28594 24.3998 7.81576 26.2302C7.92509 26.3604 8.06366 26.449 8.23147 26.4961C8.58799 26.5951 8.93372 26.707 9.26865 26.8316C9.4671 26.9064 9.63004 27.0259 9.75747 27.19C10.0116 27.519 10.2487 27.8427 10.4688 28.1613C10.4861 28.1863 10.5101 28.2062 10.5381 28.2186C10.5661 28.2311 10.597 28.2357 10.6275 28.2319C11.1825 28.1585 11.7058 28.1093 12.1974 28.0844C12.3408 28.0775 12.4843 28.11 12.6277 28.1821C13.7046 28.7243 14.7104 29.4026 15.6557 30.1994C15.8541 30.3666 16.0996 30.3604 16.344 30.3106Z" fill="#665FA2"/>
</svg>
