<svg width="269" height="64" viewBox="0 0 269 64" fill="none" xmlns="http://www.w3.org/2000/svg">
<path d="M22.0565 33.7064C20.6666 32.6074 19.3815 31.3906 18.2013 30.0561C18.0794 29.9183 17.9269 29.847 17.7438 29.8421C17.2668 29.8303 16.8002 29.8134 16.3442 29.7912C15.6562 29.2372 15.1357 28.84 14.7826 28.5997C13.9477 28.0304 12.803 27.2943 11.3484 26.3912C10.8345 26.0723 10.33 25.6672 9.85892 25.2922C8.59161 24.2832 7.46356 23.1138 6.47478 21.7842C5.62527 20.6408 4.96654 19.5182 4.49861 18.4164C3.98681 17.21 3.70967 15.9022 3.6672 14.4929C3.58051 11.6382 4.32209 8.59042 5.94627 6.16379C6.39053 5.49896 6.83269 4.9394 7.27277 4.4851C7.50326 4.24756 7.82948 3.93765 8.25146 3.55537C8.63026 3.21257 8.9913 2.9179 9.33459 2.67136C10.8477 1.5827 12.5015 1.08165 14.2959 0.544942C16.764 -0.192603 19.5079 -0.112616 22.0638 0.375618C24.3723 1.0544 27.7782 2.91755 27.7782 2.91755C27.7782 2.91755 28.918 3.74859 29.3721 4.14749C29.6401 4.38295 30.0221 4.545 30.5179 5.04916C32.1295 6.68734 33.2774 8.32345 34.1485 10.4571C34.6972 11.8013 35.0391 13.1677 35.1742 14.5562C35.3608 16.4752 35.4698 20.3548 35.4698 20.3548C35.4586 20.4005 35.4301 20.4164 35.3841 20.4026C33.5166 19.8347 31.6668 19.2654 29.8348 18.6948C29.5186 18.5971 29.1851 18.5019 28.8341 18.4091C28.3881 18.2907 27.7615 18.0185 27.328 17.8887L25.4857 17.1545L25.2768 15.856L25.0679 14.8172L24.8067 13.6745L24.2845 12.5838L23.71 11.8047L23.1356 11.2333L22.5611 10.7659L21.9866 10.3504L21.5166 10.0907L20.9944 9.88291L20.3677 9.67515L19.4799 9.41545C19.4799 9.41545 18.2124 9.16556 16.5405 9.37886C15.6694 9.49001 14.8484 9.84321 14.0776 10.3387C13.7392 10.5562 13.4614 10.7972 13.2441 11.0617C12.5659 11.8893 12.1672 12.784 12.0482 13.746C11.8529 15.326 12.42 16.532 13.5595 17.5469C13.8088 17.7685 14.0825 17.9666 14.3805 18.1411C15.7394 18.9379 17.3103 19.4323 18.8802 19.2796C19.9386 19.1764 21.0134 19.2599 22.1045 19.53C22.899 19.7267 23.6573 20.0719 24.3794 20.5657C24.4852 20.6377 24.7704 20.8884 25.2348 21.3177C26.1623 22.1737 27.2302 22.6457 28.4383 22.7336C28.5525 22.7419 28.8383 22.7669 29.2958 22.8084C29.4727 22.8243 29.6534 22.8344 29.8379 22.8385C31.296 22.8676 32.7478 23.6062 33.761 24.6253C33.7826 24.6467 33.7819 24.6675 33.7589 24.6876C33.0159 25.34 32.1702 25.7901 31.2218 26.038C30.686 26.1772 30.0113 26.1596 29.4598 25.9674C29.2008 25.8781 28.9323 25.8427 28.6649 25.7586C27.3896 25.3514 26.0422 25.2132 24.6886 25.1374C24.6168 25.1339 24.59 25.1665 24.6081 25.235C25.051 26.9034 25.7658 28.4352 26.7525 29.8307C26.788 29.8812 26.8336 29.9204 26.8893 29.9481C26.9248 29.9654 26.9245 29.9823 26.8883 29.999C25.9162 30.4318 24.9295 30.4924 23.9282 30.1808C23.6622 30.0983 23.3116 29.9062 22.8764 29.6042C20.6356 28.0502 18.4258 26.5356 16.247 25.0605C16.2401 25.0557 16.2355 25.0574 16.2334 25.0657C16.232 25.0692 16.232 25.0726 16.2334 25.0761C16.2341 25.0796 16.2359 25.0823 16.2387 25.0844C17.6111 26.2181 18.9616 27.3123 20.2902 28.367C21.3187 29.1828 22.2741 29.9017 23.1563 30.5236C23.3965 30.6925 23.7057 30.8335 24.0838 30.9463C24.9518 31.205 25.8939 31.0232 26.7347 30.6783C26.9158 30.6042 27.0878 30.5024 27.2507 30.3729C27.6392 30.0665 28.009 29.9481 28.5009 29.8463C28.7558 29.7943 28.9912 29.7891 29.207 29.8307C29.5799 29.9024 29.958 29.9678 30.286 30.2057C30.6119 30.4425 30.8852 30.6925 31.1059 30.9557C31.1104 30.9613 31.1138 30.9677 31.1156 30.9747C31.1174 30.9816 31.1178 30.9888 31.1166 30.9958C31.1154 31.0028 31.1127 31.0094 31.1087 31.0152C31.1047 31.021 31.0995 31.0259 31.0934 31.0295C29.8985 31.7615 28.6611 32.3432 27.3813 32.7746C27.3625 32.7809 27.3482 32.793 27.3384 32.811C27.335 32.8169 27.3328 32.8234 27.3321 32.8303C27.3314 32.8371 27.3321 32.844 27.3343 32.8505C27.3364 32.8571 27.34 32.8632 27.3446 32.8683C27.3493 32.8735 27.355 32.8777 27.3614 32.8806C28.385 33.3273 29.41 33.4526 30.4364 33.2566C30.6258 33.2199 30.8145 33.1472 31.0025 33.0385C32.3381 32.2629 33.6875 32.3719 35.0509 33.3657C35.2257 33.4938 35.3768 33.6555 35.5042 33.8508C35.5136 33.8655 35.5264 33.8777 35.5415 33.8862C35.5566 33.8947 35.5736 33.8993 35.5909 33.8996C35.6306 33.9003 35.6508 33.9059 35.6515 33.9163C35.6515 33.9163 35.6515 33.9166 35.6515 33.9173C35.6501 33.9325 35.6421 33.9384 35.6275 33.935C35.498 33.9069 35.3747 33.8695 35.2442 33.9183C34.5339 34.1864 33.8059 34.4471 33.0601 34.7006C32.6173 34.8512 32.1556 34.9623 31.7023 35.0693C31.6922 35.0718 31.683 35.0769 31.6756 35.0842C31.6682 35.0915 31.6629 35.1007 31.6603 35.1107C31.6578 35.1207 31.658 35.1312 31.661 35.1412C31.6639 35.1511 31.6696 35.16 31.6772 35.167C32.3924 35.8076 33.213 36.238 34.1391 36.4582C34.2519 36.4852 34.3926 36.4883 34.5611 36.4676C35.1261 36.4 35.6348 36.4281 36.1967 36.6088C36.5553 36.7238 36.883 36.9021 37.1796 37.1438C37.7318 37.594 38.136 38.175 38.3923 38.8869C38.4131 38.9451 38.3926 38.971 38.3306 38.9648C37.9379 38.9267 37.542 38.9011 37.143 38.8879C36.1288 38.8557 35.1314 38.7072 34.1203 38.5379C34.1125 38.5368 34.1046 38.5379 34.0974 38.5411C34.0902 38.5443 34.0841 38.5495 34.0797 38.556C34.0753 38.5625 34.0729 38.5701 34.0727 38.5779C34.0725 38.5857 34.0745 38.5935 34.0785 38.6002C34.2258 38.837 34.3835 39.0905 34.6154 39.2546C35.241 39.6941 35.6661 40.309 35.7883 41.0632C35.8447 41.4101 35.8211 41.7595 35.7173 42.1113C35.592 42.5372 35.4151 42.9025 35.1867 43.2073C35.18 43.216 35.1714 43.2232 35.1616 43.2282C35.1517 43.2331 35.1408 43.2358 35.1298 43.236C35.1187 43.2362 35.1078 43.2339 35.0977 43.2293C35.0877 43.2247 35.0788 43.2179 35.0718 43.2093C33.6485 41.4842 32.1856 39.7218 30.6829 37.9219C30.5513 37.765 30.4176 37.6404 30.216 37.5676C29.7634 37.4042 29.317 37.248 28.877 37.0991C28.8435 37.0874 28.8164 37.0673 28.7955 37.0389L27.9045 35.8225C27.8937 35.8079 27.8792 35.7964 27.8623 35.7891C27.8455 35.7818 27.8269 35.779 27.8085 35.7809C27.3196 35.8356 26.8078 35.8889 26.2731 35.9409C26.0732 35.9603 25.8915 35.9274 25.7278 35.8422C24.7216 35.3159 23.712 34.6296 22.6988 33.7833C22.6222 33.7189 22.5296 33.6839 22.421 33.6784C22.3019 33.6722 22.1804 33.6815 22.0565 33.7064Z" fill="#549B3E"/>
<path d="M16.344 30.3106C16.8001 30.3327 17.2666 30.3497 17.7436 30.3615C17.9268 30.3663 18.0793 30.4376 18.2011 30.5754C19.3814 31.91 20.6665 33.1267 22.0563 34.2258C22.9225 34.9252 23.6892 35.4935 24.3563 35.9304C24.9589 36.3252 25.453 36.6659 26.0473 37.0129C28.3222 38.3404 30.2576 40.0569 31.8536 42.1622C32.566 43.1019 33.1815 44.1137 33.7003 45.1975C34.0227 45.8714 34.2573 46.5379 34.4043 47.1972C35.1103 50.3811 34.5651 53.8621 33.0924 56.7635C32.7923 57.3542 32.4246 57.9314 31.9894 58.4952C31.3704 59.2978 30.7855 59.9387 30.2347 60.418C30.0397 60.5883 29.71 60.8529 29.2455 61.2116C26.4985 63.336 23.4131 63.9405 19.9433 63.9977C18.7547 64.0171 17.6392 63.9132 16.5968 63.686C15.3392 63.4118 14.0816 63.016 12.9181 62.4478C10.1056 61.0759 7.80462 59.1146 6.01507 56.564C4.76586 54.7842 3.88675 52.8019 3.37773 50.6169C3.21967 49.9417 3.11661 49.2585 3.06857 48.5674C2.93974 46.7301 2.89483 45.7498 3.35162 43.9645C3.35331 43.9576 3.35637 43.9512 3.36064 43.9456C3.36491 43.9399 3.37028 43.9352 3.37644 43.9317C3.3826 43.9282 3.38941 43.926 3.39645 43.9252C3.4035 43.9244 3.41063 43.9251 3.41742 43.9271L13.8395 46.9679V47.3315L13.8917 47.9028L13.9439 48.4741L13.9961 49.0974C14.884 51.9022 16.3462 52.9929 16.6074 53.0968L17.0252 53.4084L17.3907 53.6681L17.7041 53.8759C17.7041 53.8759 18.0383 54.0151 18.1741 54.0836C19.752 54.8731 21.3193 54.9234 22.9285 54.3743C23.6707 54.1208 24.288 53.7648 24.7803 53.3064C25.5024 52.6353 25.9853 51.8313 26.229 50.8943C26.5445 49.6838 26.3948 48.5691 25.7799 47.5504C25.4714 47.04 24.991 46.5563 24.3385 46.0992C23.2655 45.3471 22.0306 44.8904 20.6337 44.729C20.3364 44.6944 19.9785 44.7 19.56 44.7457C18.8529 44.8236 18.1343 44.8194 17.424 44.6937C17.2179 44.6577 17.0034 44.6248 16.7806 44.595C15.7351 44.4548 14.677 43.9697 13.8874 43.3526C13.6764 43.1878 13.3867 42.9357 13.0184 42.5964C12.8631 42.453 12.7141 42.3336 12.5713 42.238C12.3687 42.1019 12.1723 41.9285 11.9519 41.8298C11.2124 41.5015 10.4106 41.3093 9.54648 41.2532C8.93963 41.2127 8.30876 41.2293 7.71967 41.1016C6.54149 40.8467 5.51893 40.2892 4.65201 39.4291C4.6469 39.4239 4.64286 39.4178 4.64014 39.4111C4.63741 39.4045 4.63606 39.3973 4.63616 39.3901C4.63626 39.383 4.6378 39.3759 4.6407 39.3694C4.64361 39.3629 4.64781 39.3571 4.65305 39.3522C5.13143 38.9125 5.66586 38.5638 6.25634 38.3062C7.22075 37.8858 8.2172 37.8283 9.24567 38.1337C9.39329 38.1774 9.54161 38.2193 9.69062 38.2594C11.0352 38.6195 12.3889 38.8214 13.7516 38.865C13.7581 38.8653 13.7645 38.864 13.7704 38.8613C13.7763 38.8585 13.7815 38.8544 13.7855 38.8493C13.7896 38.8441 13.7924 38.8381 13.7938 38.8316C13.7951 38.8252 13.795 38.8185 13.7934 38.8121C13.4389 37.4748 12.9035 36.2106 12.1869 35.0194C11.9937 34.6984 11.7535 34.418 11.5759 34.0866C11.5713 34.078 11.5686 34.0685 11.5679 34.0588C11.5671 34.0492 11.5684 34.0394 11.5717 34.0303C11.5749 34.0212 11.5801 34.0129 11.5867 34.006C11.5934 33.999 11.6015 33.9936 11.6104 33.99C12.0752 33.8009 12.5024 33.724 12.9808 33.6461C13.1374 33.6205 13.2889 33.6146 13.4351 33.6285C14.0667 33.6908 14.5437 33.813 14.8661 33.9952C15.0958 34.1254 15.6174 34.4709 16.4307 35.0319C18.1569 36.223 19.9753 37.4696 21.8861 38.7715C21.8882 38.7729 21.8913 38.7761 21.8955 38.7809C21.9031 38.7892 21.9115 38.7902 21.9205 38.784C21.9217 38.7831 21.9227 38.782 21.9234 38.7807C21.9241 38.7794 21.9245 38.7779 21.9246 38.7765C21.9247 38.775 21.9245 38.7735 21.924 38.7721C21.9234 38.7707 21.9226 38.7695 21.9216 38.7684C19.8187 37.0046 17.69 35.3151 15.5356 33.7001C14.9151 33.2355 14.2153 32.9855 13.4362 32.9501C13.3359 32.946 13.2325 32.974 13.127 32.9803C12.3652 33.0239 11.6546 33.2739 10.9952 33.7303C10.6763 33.9512 10.271 34.0987 9.7794 34.1728C9.44168 34.2234 9.1165 34.2012 8.80385 34.1063C8.14791 33.9069 7.65074 33.5613 7.31232 33.0696C7.30556 33.0599 7.30087 33.0489 7.29852 33.0373C7.29617 33.0257 7.29622 33.0138 7.29867 33.0023C7.30112 32.9908 7.30591 32.98 7.31275 32.9705C7.31959 32.961 7.32833 32.953 7.33843 32.947C8.50687 32.2448 9.72718 31.6748 10.9994 31.2372C11.0843 31.2081 11.0854 31.1755 11.0025 31.1395C10.1377 30.7614 9.24219 30.6298 8.31607 30.7448C8.04346 30.7791 7.75205 30.7811 7.5066 30.9307C6.25808 31.6925 5.00435 31.6953 3.74539 30.939C3.46895 30.7728 3.21166 30.5716 2.97352 30.3355C2.96309 30.3253 2.95537 30.3126 2.95104 30.2987C2.94671 30.2848 2.9459 30.2701 2.94869 30.2558C2.95148 30.2415 2.95779 30.2281 2.96704 30.2168C2.97629 30.2055 2.9882 30.1967 3.00172 30.1911C4.17712 29.7063 5.39151 29.3029 6.64489 28.9809C6.68667 28.9698 6.71104 28.9622 6.71801 28.958C6.76257 28.929 6.76466 28.8968 6.72427 28.8614C6.02586 28.2562 5.24667 27.842 4.38671 27.619C4.21681 27.5747 4.04899 27.5636 3.88327 27.5858C3.34152 27.6557 2.78864 27.6007 2.22462 27.4206C1.13835 27.0726 0.361252 26.198 0.00194791 25.128C-0.000110054 25.1214 -0.000545308 25.1143 0.000680071 25.1075C0.00190545 25.1007 0.00475417 25.0943 0.0089778 25.0888C0.0132014 25.0834 0.0186716 25.0791 0.0249108 25.0763C0.0311501 25.0736 0.0379687 25.0724 0.0447719 25.0729C0.475797 25.0965 0.894985 25.119 1.30234 25.1405C2.11007 25.1827 3.09886 25.3022 4.26868 25.4989C4.31603 25.5065 4.32961 25.4888 4.30942 25.4459C4.16319 25.1349 3.96125 24.8891 3.70361 24.7083C3.22036 24.369 2.88474 23.9116 2.69673 23.3361C2.55746 22.9116 2.54284 22.4721 2.65286 22.0178C2.76218 21.5684 2.95193 21.1588 3.22211 20.7889C3.22614 20.7831 3.23151 20.7783 3.23778 20.775C3.24406 20.7716 3.25106 20.7698 3.25825 20.7695C3.26544 20.7693 3.27261 20.7708 3.27921 20.7738C3.2858 20.7768 3.29164 20.7813 3.29626 20.7869C4.77944 22.5854 6.28594 24.3998 7.81576 26.2302C7.92509 26.3604 8.06366 26.449 8.23147 26.4961C8.58799 26.5951 8.93372 26.707 9.26865 26.8316C9.4671 26.9064 9.63004 27.0259 9.75747 27.19C10.0116 27.519 10.2487 27.8427 10.4688 28.1613C10.4861 28.1863 10.5101 28.2062 10.5381 28.2186C10.5661 28.2311 10.597 28.2357 10.6275 28.2319C11.1825 28.1585 11.7058 28.1093 12.1974 28.0844C12.3408 28.0775 12.4843 28.11 12.6277 28.1821C13.7046 28.7243 14.7104 29.4026 15.6557 30.1994C15.8541 30.3666 16.0996 30.3604 16.344 30.3106Z" fill="#665FA2"/>
<path d="M62.8 47.72C61.12 47.72 59.64 47.4267 58.36 46.84C57.08 46.2533 56.0933 45.44 55.4 44.4C54.7067 43.3333 54.36 42.1067 54.36 40.72C54.36 39.5467 54.6 38.48 55.08 37.52C55.5867 36.56 56.2533 35.8 57.08 35.24C57.9333 34.68 58.8667 34.4 59.88 34.4C60.8133 34.4 61.6 34.64 62.24 35.12C62.88 35.5733 63.28 36.2133 63.44 37.04C62.0533 37.04 60.9467 37.4133 60.12 38.16C59.2933 38.88 58.88 39.8667 58.88 41.12C58.88 42.2667 59.2267 43.1867 59.92 43.88C60.6133 44.5733 61.5333 44.92 62.68 44.92C64.0933 44.92 65.2533 44.4533 66.16 43.52C67.0933 42.56 67.56 41.36 67.56 39.92C67.56 38.6667 67.2133 37.48 66.52 36.36C65.8267 35.24 64.7867 33.88 63.4 32.28C61.96 30.6267 60.8667 29.2133 60.12 28.04C59.4 26.84 59.04 25.5333 59.04 24.12C59.04 22.7333 59.4267 21.4933 60.2 20.4C60.9733 19.28 62.04 18.4 63.4 17.76C64.76 17.12 66.2933 16.8 68 16.8C70.16 16.8 71.88 17.3067 73.16 18.32C74.4667 19.3333 75.12 20.6933 75.12 22.4C75.12 23.52 74.84 24.4267 74.28 25.12C73.72 25.8133 72.9867 26.16 72.08 26.16C71.0667 26.16 70.2533 25.7467 69.64 24.92C70.1467 24.5467 70.5467 24.0533 70.84 23.44C71.1333 22.8267 71.28 22.1867 71.28 21.52C71.28 20.6667 71.0267 19.9867 70.52 19.48C70.0133 18.9733 69.32 18.72 68.44 18.72C67.3733 18.72 66.4933 19.1067 65.8 19.88C65.1333 20.6267 64.8 21.5867 64.8 22.76C64.8 23.8267 65.1067 24.8267 65.72 25.76C66.3333 26.6667 67.2933 27.84 68.6 29.28C69.6667 30.4267 70.52 31.4133 71.16 32.24C71.8267 33.0667 72.3867 34.0267 72.84 35.12C73.32 36.1867 73.56 37.3467 73.56 38.6C73.56 40.3067 73.08 41.8533 72.12 43.24C71.1867 44.6267 69.8933 45.72 68.24 46.52C66.6133 47.32 64.8 47.72 62.8 47.72ZM81.5325 47.24C79.5592 47.24 78.0258 46.7333 76.9325 45.72C75.8392 44.68 75.2925 43.0667 75.2925 40.88C75.2925 39.04 75.6525 37.0133 76.3725 34.8C77.0925 32.5867 78.2658 30.68 79.8925 29.08C81.5192 27.4533 83.5858 26.64 86.0925 26.64C89.0258 26.64 90.4925 27.92 90.4925 30.48C90.4925 31.9733 90.0658 33.3467 89.2125 34.6C88.3592 35.8533 87.2258 36.8667 85.8125 37.64C84.3992 38.3867 82.8925 38.8133 81.2925 38.92C81.2392 39.72 81.2125 40.2533 81.2125 40.52C81.2125 41.8267 81.4392 42.72 81.8925 43.2C82.3458 43.6533 83.0792 43.88 84.0925 43.88C85.5325 43.88 86.7592 43.5467 87.7725 42.88C88.8125 42.2133 89.9458 41.2 91.1725 39.84H92.5325C89.5725 44.7733 85.9058 47.24 81.5325 47.24ZM81.6125 37C82.5992 36.9467 83.5325 36.6 84.4125 35.96C85.3192 35.32 86.0392 34.5067 86.5725 33.52C87.1325 32.5333 87.4125 31.4933 87.4125 30.4C87.4125 29.3067 87.0792 28.76 86.4125 28.76C85.4525 28.76 84.5058 29.6 83.5725 31.28C82.6658 32.96 82.0125 34.8667 81.6125 37ZM95.7241 47.24C94.1774 47.24 92.9641 46.8533 92.0841 46.08C91.2307 45.28 90.8041 44.0933 90.8041 42.52C90.8041 41.88 90.8707 41.24 91.0041 40.6L93.8841 27H99.6441L96.7641 40.6C96.6307 41.2667 96.5641 41.7467 96.5641 42.04C96.5641 42.92 97.0174 43.36 97.9241 43.36C99.1507 43.36 100.284 42.5867 101.324 41.04C102.391 39.4933 103.244 37.6533 103.884 35.52C104.524 33.3867 104.844 31.5467 104.844 30C104.791 30.1333 104.617 30.24 104.324 30.32C104.031 30.3733 103.777 30.4 103.564 30.4C103.111 30.4 102.751 30.1867 102.484 29.76C102.244 29.3333 102.124 28.8667 102.124 28.36C102.124 27.72 102.324 27.2 102.724 26.8C103.151 26.4 103.777 26.2 104.604 26.2C105.484 26.2 106.124 26.5333 106.524 27.2C106.924 27.84 107.124 28.6667 107.124 29.68C107.124 32.08 106.711 34.6533 105.884 37.4C105.057 40.12 103.791 42.44 102.084 44.36C100.377 46.28 98.2574 47.24 95.7241 47.24ZM112.527 47.24C111.007 47.24 109.74 46.72 108.727 45.68C107.713 44.64 107.207 43.0133 107.207 40.8C107.207 38.8267 107.593 36.76 108.367 34.6C109.167 32.4133 110.34 30.5733 111.887 29.08C113.46 27.56 115.327 26.8 117.487 26.8C118.58 26.8 119.393 26.9867 119.927 27.36C120.46 27.7333 120.727 28.2267 120.727 28.84V29.12L121.167 27H126.927L124.047 40.6C123.94 41 123.887 41.4267 123.887 41.88C123.887 42.4133 124.007 42.8 124.247 43.04C124.513 43.2533 124.94 43.36 125.527 43.36C125.9 43.36 126.193 43.3067 126.407 43.2C125.82 44.6933 125.26 45.7467 124.727 46.36C124.193 46.9467 123.42 47.24 122.407 47.24C121.313 47.24 120.42 46.92 119.727 46.28C119.06 45.6133 118.647 44.6933 118.487 43.52C116.86 46 114.873 47.24 112.527 47.24ZM115.127 43.36C115.793 43.36 116.447 43.0533 117.087 42.44C117.753 41.8 118.207 40.9333 118.447 39.84L120.367 30.8C120.367 30.4533 120.233 30.12 119.967 29.8C119.7 29.4533 119.287 29.28 118.727 29.28C117.66 29.28 116.7 29.9067 115.847 31.16C114.993 32.3867 114.327 33.88 113.847 35.64C113.367 37.3733 113.127 38.9067 113.127 40.24C113.127 41.5733 113.313 42.4267 113.687 42.8C114.087 43.1733 114.567 43.36 115.127 43.36Z" fill="#549B3E"/>
<path d="M144.87 47.72C143.19 47.72 141.71 47.4267 140.43 46.84C139.15 46.2533 138.164 45.44 137.47 44.4C136.777 43.3333 136.43 42.1067 136.43 40.72C136.43 39.5467 136.67 38.48 137.15 37.52C137.657 36.56 138.324 35.8 139.15 35.24C140.004 34.68 140.937 34.4 141.95 34.4C142.884 34.4 143.67 34.64 144.31 35.12C144.95 35.5733 145.35 36.2133 145.51 37.04C144.124 37.04 143.017 37.4133 142.19 38.16C141.364 38.88 140.95 39.8667 140.95 41.12C140.95 42.2667 141.297 43.1867 141.99 43.88C142.684 44.5733 143.604 44.92 144.75 44.92C146.164 44.92 147.324 44.4533 148.23 43.52C149.164 42.56 149.63 41.36 149.63 39.92C149.63 38.6667 149.284 37.48 148.59 36.36C147.897 35.24 146.857 33.88 145.47 32.28C144.03 30.6267 142.937 29.2133 142.19 28.04C141.47 26.84 141.11 25.5333 141.11 24.12C141.11 22.7333 141.497 21.4933 142.27 20.4C143.044 19.28 144.11 18.4 145.47 17.76C146.83 17.12 148.364 16.8 150.07 16.8C152.23 16.8 153.95 17.3067 155.23 18.32C156.537 19.3333 157.19 20.6933 157.19 22.4C157.19 23.52 156.91 24.4267 156.35 25.12C155.79 25.8133 155.057 26.16 154.15 26.16C153.137 26.16 152.324 25.7467 151.71 24.92C152.217 24.5467 152.617 24.0533 152.91 23.44C153.204 22.8267 153.35 22.1867 153.35 21.52C153.35 20.6667 153.097 19.9867 152.59 19.48C152.084 18.9733 151.39 18.72 150.51 18.72C149.444 18.72 148.564 19.1067 147.87 19.88C147.204 20.6267 146.87 21.5867 146.87 22.76C146.87 23.8267 147.177 24.8267 147.79 25.76C148.404 26.6667 149.364 27.84 150.67 29.28C151.737 30.4267 152.59 31.4133 153.23 32.24C153.897 33.0667 154.457 34.0267 154.91 35.12C155.39 36.1867 155.63 37.3467 155.63 38.6C155.63 40.3067 155.15 41.8533 154.19 43.24C153.257 44.6267 151.964 45.72 150.31 46.52C148.684 47.32 146.87 47.72 144.87 47.72ZM162.683 47.24C161.163 47.24 159.896 46.72 158.883 45.68C157.869 44.64 157.363 43.0133 157.363 40.8C157.363 38.8267 157.749 36.76 158.523 34.6C159.323 32.4133 160.496 30.5733 162.043 29.08C163.616 27.56 165.483 26.8 167.643 26.8C168.736 26.8 169.549 26.9867 170.083 27.36C170.616 27.7333 170.883 28.2267 170.883 28.84V29.12L171.323 27H177.083L174.203 40.6C174.096 41 174.043 41.4267 174.043 41.88C174.043 43.0267 174.589 43.6 175.683 43.6C176.429 43.6 177.069 43.2533 177.603 42.56C178.163 41.8667 178.603 40.96 178.923 39.84H180.603C179.616 42.72 178.389 44.68 176.923 45.72C175.483 46.7333 174.029 47.24 172.563 47.24C171.443 47.24 170.536 46.9333 169.843 46.32C169.176 45.68 168.776 44.76 168.643 43.56C167.869 44.6533 167.003 45.5467 166.043 46.24C165.109 46.9067 163.989 47.24 162.683 47.24ZM165.283 43.36C165.949 43.36 166.603 43.0533 167.243 42.44C167.909 41.8 168.363 40.9333 168.603 39.84L170.523 30.8C170.523 30.4533 170.389 30.12 170.123 29.8C169.856 29.4533 169.443 29.28 168.883 29.28C167.816 29.28 166.856 29.9067 166.003 31.16C165.149 32.3867 164.483 33.88 164.003 35.64C163.523 37.3733 163.283 38.9067 163.283 40.24C163.283 41.5733 163.469 42.4267 163.843 42.8C164.243 43.1733 164.723 43.36 165.283 43.36ZM193.378 47.24C191.751 47.24 190.551 46.8133 189.778 45.96C189.031 45.08 188.658 44 188.658 42.72C188.658 42.16 188.724 41.5333 188.858 40.84C188.991 40.12 189.124 39.4267 189.258 38.76C189.418 38.0933 189.524 37.6667 189.578 37.48C189.791 36.5467 189.991 35.6267 190.178 34.72C190.364 33.8133 190.458 33.08 190.458 32.52C190.458 31.16 189.978 30.48 189.018 30.48C188.324 30.48 187.711 30.8267 187.178 31.52C186.644 32.1867 186.218 33.0667 185.898 34.16L183.178 47H177.417L181.658 27H187.418L186.978 29.08C188.311 27.5867 189.871 26.84 191.658 26.84C193.018 26.84 194.098 27.2133 194.898 27.96C195.698 28.7067 196.098 29.84 196.098 31.36C196.098 32.1333 196.004 33 195.818 33.96C195.631 34.8933 195.364 36.04 195.018 37.4C194.804 38.2267 194.604 39.04 194.418 39.84C194.258 40.6133 194.178 41.2267 194.178 41.68C194.178 42.2133 194.298 42.6267 194.538 42.92C194.778 43.2133 195.191 43.36 195.778 43.36C196.578 43.36 197.218 43.08 197.698 42.52C198.178 41.9333 198.658 41.04 199.137 39.84H200.818C199.831 42.7733 198.684 44.7467 197.378 45.76C196.098 46.7467 194.764 47.24 193.378 47.24ZM206.213 57C204.933 57 203.866 56.6667 203.013 56C202.159 55.3333 201.733 54.3733 201.733 53.12C201.733 51.6 202.346 50.3733 203.573 49.44C204.799 48.5333 206.359 47.7733 208.253 47.16L208.733 45.04C207.373 46.5067 205.773 47.24 203.933 47.24C202.413 47.24 201.146 46.72 200.133 45.68C199.119 44.64 198.613 43.0133 198.613 40.8C198.613 38.8267 198.999 36.76 199.773 34.6C200.573 32.4133 201.746 30.5733 203.293 29.08C204.866 27.56 206.733 26.8 208.893 26.8C209.986 26.8 210.799 26.9867 211.333 27.36C211.866 27.7333 212.133 28.2267 212.133 28.84V29.08L212.573 27H218.333L214.373 45.56C215.653 45.1333 216.679 44.4933 217.453 43.64C218.226 42.7867 218.879 41.52 219.413 39.84H221.093C220.373 42.2133 219.399 43.96 218.173 45.08C216.946 46.1733 215.559 46.92 214.013 47.32L213.413 50.2C212.879 52.7867 211.959 54.56 210.653 55.52C209.346 56.5067 207.866 57 206.213 57ZM206.533 43.36C207.146 43.36 207.773 43.08 208.413 42.52C209.053 41.96 209.493 41.2 209.733 40.24L211.773 30.76C211.773 30.44 211.639 30.12 211.373 29.8C211.106 29.4533 210.693 29.28 210.133 29.28C209.066 29.28 208.106 29.9067 207.253 31.16C206.399 32.3867 205.733 33.88 205.253 35.64C204.773 37.3733 204.533 38.9067 204.533 40.24C204.533 41.5733 204.719 42.4267 205.093 42.8C205.493 43.1733 205.973 43.36 206.533 43.36ZM205.293 53.88C205.746 53.88 206.186 53.5733 206.613 52.96C207.039 52.3467 207.373 51.4667 207.613 50.32L207.853 49.16C205.239 50.12 203.933 51.2533 203.933 52.56C203.933 52.9067 204.053 53.2133 204.293 53.48C204.533 53.7467 204.866 53.88 205.293 53.88ZM224.206 47.24C222.686 47.24 221.42 46.72 220.406 45.68C219.393 44.64 218.886 43.0133 218.886 40.8C218.886 38.8267 219.273 36.76 220.046 34.6C220.846 32.4133 222.02 30.5733 223.566 29.08C225.14 27.56 227.006 26.8 229.166 26.8C230.26 26.8 231.073 26.9867 231.606 27.36C232.14 27.7333 232.406 28.2267 232.406 28.84V29.12L232.846 27H238.606L235.726 40.6C235.62 41 235.566 41.4267 235.566 41.88C235.566 43.0267 236.113 43.6 237.206 43.6C237.953 43.6 238.593 43.2533 239.126 42.56C239.686 41.8667 240.126 40.96 240.446 39.84H242.126C241.14 42.72 239.913 44.68 238.446 45.72C237.006 46.7333 235.553 47.24 234.086 47.24C232.966 47.24 232.06 46.9333 231.366 46.32C230.7 45.68 230.3 44.76 230.166 43.56C229.393 44.6533 228.526 45.5467 227.566 46.24C226.633 46.9067 225.513 47.24 224.206 47.24ZM226.806 43.36C227.473 43.36 228.126 43.0533 228.766 42.44C229.433 41.8 229.886 40.9333 230.126 39.84L232.046 30.8C232.046 30.4533 231.913 30.12 231.646 29.8C231.38 29.4533 230.966 29.28 230.406 29.28C229.34 29.28 228.38 29.9067 227.526 31.16C226.673 32.3867 226.006 33.88 225.526 35.64C225.046 37.3733 224.806 38.9067 224.806 40.24C224.806 41.5733 224.993 42.4267 225.366 42.8C225.766 43.1733 226.246 43.36 226.806 43.36ZM264.101 47.24C262.688 47.24 261.661 46.8133 261.021 45.96C260.381 45.1067 260.061 44.0267 260.061 42.72C260.061 42.16 260.128 41.5333 260.261 40.84C260.394 40.12 260.528 39.4267 260.661 38.76C260.821 38.0933 260.928 37.6667 260.981 37.48C261.194 36.5467 261.394 35.6267 261.581 34.72C261.768 33.8133 261.861 33.08 261.861 32.52C261.861 31.16 261.381 30.48 260.421 30.48C259.728 30.48 259.114 30.8267 258.581 31.52C258.048 32.1867 257.621 33.0667 257.301 34.16L254.581 47H248.821L251.741 33.2C251.821 32.88 251.861 32.5467 251.861 32.2C251.861 31.0267 251.461 30.44 250.661 30.44C249.914 30.44 249.261 30.7867 248.701 31.48C248.168 32.1467 247.741 33.04 247.421 34.16L244.701 47H238.941L243.181 27H248.941L248.501 29.08C249.861 27.56 251.488 26.8 253.381 26.8C255.728 26.8 257.101 27.9467 257.501 30.24C258.968 27.9733 260.821 26.84 263.061 26.84C264.421 26.84 265.501 27.2133 266.301 27.96C267.101 28.7067 267.501 29.84 267.501 31.36C267.501 32.1333 267.408 33 267.221 33.96C267.034 34.8933 266.768 36.04 266.421 37.4C266.208 38.2267 266.008 39.04 265.821 39.84C265.661 40.6133 265.581 41.2267 265.581 41.68C265.581 42.2133 265.701 42.6267 265.941 42.92C266.181 43.2133 266.594 43.36 267.181 43.36C267.821 43.36 268.261 43.28 268.501 43.12C268.341 44.48 267.848 45.5067 267.021 46.2C266.221 46.8933 265.248 47.24 264.101 47.24Z" fill="#665FA2"/>
</svg>
